<svg xmlns="http://www.w3.org/2000/svg" width="512" height="512" viewBox="0 0 512 512">
  <defs>
    <linearGradient id="bgGradient" x1="0%" y1="0%" x2="100%" y2="100%">
      <stop offset="0%" style="stop-color:#5A9FE8;stop-opacity:1" />
      <stop offset="100%" style="stop-color:#3A7FC8;stop-opacity:1" />
    </linearGradient>
    <linearGradient id="bookGradient" x1="0%" y1="0%" x2="100%" y2="100%">
      <stop offset="0%" style="stop-color:#FFFFFF;stop-opacity:1" />
      <stop offset="100%" style="stop-color:#E8F0FF;stop-opacity:1" />
    </linearGradient>
    <filter id="shadow" x="-20%" y="-20%" width="140%" height="140%">
      <feDropShadow dx="0" dy="2" stdDeviation="3" flood-color="#000" flood-opacity="0.15"/>
    </filter>
  </defs>
  
  <rect width="512" height="512" rx="92.16" fill="url(#bgGradient)"/>
  
  <g transform="translate(76.8, 61.44)">
    <path d="M179.2 40.96 
             L332.8 40.96 
             Q368.64 40.96 368.64 76.8
             L368.64 348.16
             Q368.64 384 332.8 384
             L179.2 384
             Q143.36 384 143.36 348.16
             L143.36 76.8
             Q143.36 40.96 179.2 40.96Z"
          fill="url(#bookGradient)" filter="url(#shadow)"/>
    
    <path d="M143.36 76.8
             L76.8 112.64
             Q40.96 133.12 40.96 179.2
             L40.96 368.64
             Q40.96 399.36 71.68 399.36
             L143.36 368.64Z"
          fill="#D0E0FF" opacity="0.9" filter="url(#shadow)"/>
    
    <rect x="163.84" y="92.16" width="184.32" height="20.48" rx="5.12" fill="#4A90E2" opacity="0.9"/>
    <rect x="163.84" y="133.12" width="143.36" height="15.36" rx="5.12" fill="#4A90E2" opacity="0.6"/>
    <rect x="163.84" y="163.84" width="163.84" height="15.36" rx="5.12" fill="#4A90E2" opacity="0.6"/>
    <rect x="163.84" y="194.56" width="122.88" height="15.36" rx="5.12" fill="#4A90E2" opacity="0.6"/>
    
    <circle cx="317.44" cy="296.96" r="61.44" fill="#FFD700" filter="url(#shadow)"/>
    <path d="M281.6 296.96 L307.2 322.56 L358.4 266.24" 
          stroke="#FFFFFF" stroke-width="12.8" fill="none" stroke-linecap="round" stroke-linejoin="round"/>
  </g>
</svg>