<svg xmlns="http://www.w3.org/2000/svg" width="1024" height="1024" viewBox="0 0 1024 1024">
  <defs>
    <linearGradient id="bgGradient" x1="0%" y1="0%" x2="100%" y2="100%">
      <stop offset="0%" style="stop-color:#5A9FE8;stop-opacity:1" />
      <stop offset="100%" style="stop-color:#3A7FC8;stop-opacity:1" />
    </linearGradient>
    <linearGradient id="bookGradient" x1="0%" y1="0%" x2="100%" y2="100%">
      <stop offset="0%" style="stop-color:#FFFFFF;stop-opacity:1" />
      <stop offset="100%" style="stop-color:#E8F0FF;stop-opacity:1" />
    </linearGradient>
    <filter id="shadow" x="-20%" y="-20%" width="140%" height="140%">
      <feDropShadow dx="0" dy="2" stdDeviation="3" flood-color="#000" flood-opacity="0.15"/>
    </filter>
  </defs>
  
  <rect width="1024" height="1024" rx="184.32" fill="url(#bgGradient)"/>
  
  <g transform="translate(153.6, 122.88)">
    <path d="M358.4 81.92 
             L665.6 81.92 
             Q737.28 81.92 737.28 153.6
             L737.28 696.32
             Q737.28 768 665.6 768
             L358.4 768
             Q286.72 768 286.72 696.32
             L286.72 153.6
             Q286.72 81.92 358.4 81.92Z"
          fill="url(#bookGradient)" filter="url(#shadow)"/>
    
    <path d="M286.72 153.6
             L153.6 225.28
             Q81.92 266.24 81.92 358.4
             L81.92 737.28
             Q81.92 798.72 143.36 798.72
             L286.72 737.28Z"
          fill="#D0E0FF" opacity="0.9" filter="url(#shadow)"/>
    
    <rect x="327.68" y="184.32" width="368.64" height="40.96" rx="10.24" fill="#4A90E2" opacity="0.9"/>
    <rect x="327.68" y="266.24" width="286.72" height="30.72" rx="10.24" fill="#4A90E2" opacity="0.6"/>
    <rect x="327.68" y="327.68" width="327.68" height="30.72" rx="10.24" fill="#4A90E2" opacity="0.6"/>
    <rect x="327.68" y="389.12" width="245.76" height="30.72" rx="10.24" fill="#4A90E2" opacity="0.6"/>
    
    <circle cx="634.88" cy="593.92" r="122.88" fill="#FFD700" filter="url(#shadow)"/>
    <path d="M563.2 593.92 L614.4 645.12 L716.8 532.48" 
          stroke="#FFFFFF" stroke-width="25.6" fill="none" stroke-linecap="round" stroke-linejoin="round"/>
  </g>
</svg>