<svg xmlns="http://www.w3.org/2000/svg" width="144" height="144" viewBox="0 0 144 144">
  <defs>
    <linearGradient id="bgGradient" x1="0%" y1="0%" x2="100%" y2="100%">
      <stop offset="0%" style="stop-color:#5A9FE8;stop-opacity:1" />
      <stop offset="100%" style="stop-color:#3A7FC8;stop-opacity:1" />
    </linearGradient>
    <linearGradient id="bookGradient" x1="0%" y1="0%" x2="100%" y2="100%">
      <stop offset="0%" style="stop-color:#FFFFFF;stop-opacity:1" />
      <stop offset="100%" style="stop-color:#E8F0FF;stop-opacity:1" />
    </linearGradient>
    <filter id="shadow" x="-20%" y="-20%" width="140%" height="140%">
      <feDropShadow dx="0" dy="2" stdDeviation="3" flood-color="#000" flood-opacity="0.15"/>
    </filter>
  </defs>
  
  <rect width="144" height="144" rx="25.919999999999998" fill="url(#bgGradient)"/>
  
  <g transform="translate(21.599999999999998, 17.28)">
    <path d="M50.4 11.52 
             L93.60000000000001 11.52 
             Q103.67999999999999 11.52 103.67999999999999 21.599999999999998
             L103.67999999999999 97.92
             Q103.67999999999999 108 93.60000000000001 108
             L50.4 108
             Q40.32000000000001 108 40.32000000000001 97.92
             L40.32000000000001 21.599999999999998
             Q40.32000000000001 11.52 50.4 11.52Z"
          fill="url(#bookGradient)" filter="url(#shadow)"/>
    
    <path d="M40.32000000000001 21.599999999999998
             L21.599999999999998 31.68
             Q11.52 37.44 11.52 50.4
             L11.52 103.67999999999999
             Q11.52 112.32000000000001 20.160000000000004 112.32000000000001
             L40.32000000000001 103.67999999999999Z"
          fill="#D0E0FF" opacity="0.9" filter="url(#shadow)"/>
    
    <rect x="46.08" y="25.919999999999998" width="51.839999999999996" height="5.76" rx="1.44" fill="#4A90E2" opacity="0.9"/>
    <rect x="46.08" y="37.44" width="40.32000000000001" height="4.32" rx="1.44" fill="#4A90E2" opacity="0.6"/>
    <rect x="46.08" y="46.08" width="46.08" height="4.32" rx="1.44" fill="#4A90E2" opacity="0.6"/>
    <rect x="46.08" y="54.72" width="34.56" height="4.32" rx="1.44" fill="#4A90E2" opacity="0.6"/>
    
    <circle cx="89.28" cy="83.52" r="17.28" fill="#FFD700" filter="url(#shadow)"/>
    <path d="M79.2 83.52 L86.39999999999999 90.72 L100.8 74.88" 
          stroke="#FFFFFF" stroke-width="3.6" fill="none" stroke-linecap="round" stroke-linejoin="round"/>
  </g>
</svg>